<svg id="Layer_1" data-name="Layer 1" xmlns="http://www.w3.org/2000/svg" viewBox="0 0 584.3 584.3"><defs><style>.cls-1{fill:none;}.cls-2{fill:#fff;}</style></defs><title>logo</title><path class="cls-1" d="M409.8,281.5c-144.8,0-262.2,117.4-262.2,262.2S265,805.8,409.8,805.8,671.9,688.4,671.9,543.6,554.6,281.5,409.8,281.5ZM626.1,629.2H378.5v-106H351v106H286v-106H258.5v106h-65v-171H442.7v106h27.5v-106h64.2v106h27.5v-106h64.2v171Z" transform="translate(-117.6 -251.5)"/><polygon class="cls-2" points="444.3 312.7 416.8 312.7 416.8 206.6 352.6 206.6 352.6 312.7 325.1 312.7 325.1 206.6 260.9 206.6 260.1 206.6 233.4 206.6 168.4 206.6 140.9 206.6 75.9 206.6 75.9 271.6 75.9 377.7 140.9 377.7 140.9 271.6 168.4 271.6 168.4 377.7 233.4 377.7 233.4 271.6 260.9 271.6 260.9 377.7 296.9 377.7 325.1 377.7 351.8 377.7 352.6 377.7 416.8 377.7 443.5 377.7 444.3 377.7 481.9 377.7 508.5 377.7 508.5 206.6 444.3 206.6 444.3 312.7"/><path class="cls-2" d="M679,429.9a293,293,0,1,0,23,113.7A291.2,291.2,0,0,0,679,429.9ZM409.8,805.8c-144.8,0-262.2-117.4-262.2-262.2S265,281.5,409.8,281.5,671.9,398.9,671.9,543.6,554.6,805.8,409.8,805.8Z" transform="translate(-117.6 -251.5)"/></svg>